<svg xmlns="http://www.w3.org/2000/svg" width="24" height="24" viewBox="0 0 24 24" fill="none">
<path d="M5.46154 15.4615C7.3733 15.4615 8.92308 13.9117 8.92308 12C8.92308 10.0882 7.3733 8.53845 5.46154 8.53845C3.54979 8.53845 2 10.0882 2 12C2 13.9117 3.54979 15.4615 5.46154 15.4615Z" stroke="#121212" stroke-width="1.6" stroke-linecap="round" stroke-linejoin="round"/>
<path d="M18.5386 22.0001C20.4503 22.0001 22.0001 20.4503 22.0001 18.5386C22.0001 16.6269 20.4503 15.077 18.5386 15.077C16.6269 15.077 15.077 16.6269 15.077 18.5386C15.077 20.4503 16.6269 22.0001 18.5386 22.0001Z" stroke="#121212" stroke-width="1.6" stroke-linecap="round" stroke-linejoin="round"/>
<path d="M18.5386 8.92308C20.4503 8.92308 22.0001 7.3733 22.0001 5.46154C22.0001 3.54979 20.4503 2 18.5386 2C16.6269 2 15.077 3.54979 15.077 5.46154C15.077 7.3733 16.6269 8.92308 18.5386 8.92308Z" stroke="#121212" stroke-width="1.6" stroke-linecap="round" stroke-linejoin="round"/>
<path d="M8.55396 10.4615L15.4463 7" stroke="#121212" stroke-width="1.6" stroke-linecap="round" stroke-linejoin="round"/>
<path d="M8.55396 13.5385L15.4463 17" stroke="#121212" stroke-width="1.6" stroke-linecap="round" stroke-linejoin="round"/>
</svg>